<?xml version="1.0" encoding="UTF-8"?>
<svg width="600px" height="600px" viewBox="0 0 600 600" version="1.1" xmlns="http://www.w3.org/2000/svg" xmlns:xlink="http://www.w3.org/1999/xlink">
    <title>Artboard</title>
    <g id="Artboard" stroke="none" stroke-width="1" fill="none" fill-rule="evenodd">
        <g id="Group-19-Copy" transform="translate(29, 0)">
            <path d="M386,92.3893706 C386,106.809925 383.646552,121.213613 378.926245,135 C355.716954,117.391744 326.831897,106.948227 295.522989,106.948227 C266.82567,106.948227 240.136494,115.728742 218,130.783464 L347.979406,0 C373.337644,25.5151046 386,58.950551 386,92.3893706" id="Fill-7" fill="#EF6D14"></path>
            <path d="M381,136.815528 C374.885633,154.837421 364.719257,171.772248 350.487654,186.158322 L198.491089,340 C193.265783,334.715183 188.579203,329.08585 184.464399,323.168863 C158.605582,286.255423 154.120611,238.698763 171.00618,198.092641 C177.23953,183.081087 186.411081,169.002737 198.491089,156.777417 L222.350342,132.631158 C244.173676,117.703223 270.481982,109 298.77663,109 C329.639313,109 358.11574,119.35222 381,136.815528" id="Fill-9" fill="#F49227"></path>
            <path d="M209,532 C238.489808,495.232023 256.117012,448.67315 256.117012,398.027843 C256.117012,370.104431 250.759169,343.445 241.0337,318.972722 L360.383238,200.525704 C385.602108,175.514083 418.632694,163 451.683284,163 C484.733874,163 517.78113,175.514083 543,200.525704 L209,532 Z" id="Fill-11" fill="#2F6066"></path>
            <path d="M261,398.068695 C261,419.217019 257.863271,439.661517 252.042895,459 C247.337802,419.619206 232.037534,383.35536 209,352.856192 L245.246649,318 C255.38874,342.801521 261,369.781555 261,398.068695" id="Fill-13" fill="#F49227"></path>
            <path d="M251,459.838726 C243.003599,487.082891 229.720874,512.07602 212.322847,533.692593 L183.281525,562.426415 C179.567715,566.100902 175.720075,569.477457 171.705145,572.622288 C166.987603,576.296774 162.069315,579.574019 157.017195,582.520229 L156.983738,582.520229 C107.365902,611.254051 42.5582511,604.567148 0,562.426415 L209.679685,355 C231.795255,385.124168 246.483204,420.942135 251,459.838726" id="Fill-15" fill="#AAA211"></path>
            <path d="M442.08694,328 C461.914109,386.100241 448.663362,452.988101 402.321193,499.333255 C355.989153,545.661529 289.10073,558.915541 231,539.085163 L442.08694,328 Z" id="Fill-17" fill="#84ACAF"></path>
        </g>
    </g>
</svg>